<svg width="24" height="24" viewBox="0 0 24 24" fill="none" xmlns="http://www.w3.org/2000/svg">
<path d="M23.7936 17.3736C23.455 17.035 23.0941 16.7288 22.7131 16.4546C21.9014 17.392 20.9483 18.18 19.8738 18.8003C18.2093 19.7614 16.3163 20.2746 14.3953 20.2867C15.4154 20.6981 16.5151 20.9139 17.6482 20.9139C19.9696 20.9139 22.1521 20.0099 23.7937 18.3684C23.9255 18.2365 23.9996 18.0577 23.9996 17.8712C23.9996 17.6847 23.9255 17.5055 23.7936 17.3736Z" fill="#FF9F66"/>
<path d="M1.28648 16.4546C0.905484 16.7288 0.544594 17.035 0.205969 17.3736C0.0741094 17.5055 0 17.6847 0 17.8712C0 18.0577 0.0741094 18.2365 0.205969 18.3684C1.84748 20.0099 4.02998 20.9139 6.35142 20.9139C7.48448 20.9139 8.58427 20.6981 9.60436 20.2867C7.68319 20.2746 5.79028 19.7614 4.12566 18.8002C3.05119 18.18 2.09812 17.392 1.28648 16.4546Z" fill="#FF9F66"/>
<path d="M4.82974 17.5822C5.99867 18.2572 7.35762 18.7098 8.80648 18.841C6.30293 17.4553 4.94988 15.5315 4.31299 14.4284C3.61259 13.2154 3.1392 11.9011 2.90379 10.5181C2.20437 10.5481 1.50809 10.6525 0.83065 10.8326C0.521275 10.9064 0.29126 11.1849 0.29126 11.5169C0.29126 11.5784 0.299322 11.6396 0.31526 11.699C1.03338 14.3775 2.78679 16.4029 4.82974 17.5822Z" fill="#FF9F66"/>
<path d="M15.1943 18.8412C16.6431 18.71 18.0021 18.2574 19.171 17.5824C21.214 16.4031 22.9674 14.3777 23.6855 11.6992C23.7015 11.6398 23.7095 11.5786 23.7095 11.5171C23.7095 11.1852 23.4795 10.9067 23.1701 10.8328C22.4927 10.6527 21.7964 10.5483 21.097 10.5183C20.8616 11.9013 20.3882 13.2156 19.6878 14.4287C19.0509 15.5318 17.6994 17.4546 15.1943 18.8412Z" fill="#FF9F66"/>
<path d="M8.7793 17.181C8.06881 16.0334 6.96542 13.8304 6.96542 10.8106C6.96542 9.28029 7.24869 7.79177 7.80659 6.37952C7.03813 5.94119 6.21416 5.60032 5.3563 5.37054C4.98111 5.27013 4.59575 5.4926 4.4952 5.86765C3.72776 8.73068 4.26903 11.5425 5.52945 13.7253C6.29469 15.0507 7.39363 16.2618 8.7793 17.181Z" fill="#FF9F66"/>
<path d="M15.2195 17.1815C16.6055 16.2622 17.7047 15.0509 18.47 13.7254C19.7305 11.5424 20.2717 8.73069 19.5043 5.86766C19.4037 5.49262 19.0184 5.2701 18.6432 5.37055C17.7852 5.60033 16.9612 5.9413 16.1926 6.37972C16.7504 7.79188 17.0337 9.28035 17.0337 10.8106C17.0337 13.833 15.9284 16.0366 15.2195 17.1815Z" fill="#FF9F66"/>
<path d="M12.4966 3.25284C12.3647 3.12098 12.1855 3.04688 11.999 3.04688C11.8125 3.04688 11.6337 3.12098 11.5018 3.25284C9.66016 5.09452 8.37152 7.75308 8.37152 10.8105C8.37152 13.8694 9.66161 16.5281 11.5018 18.3682C11.6337 18.5001 11.8129 18.5742 11.9994 18.5742C12.1859 18.5742 12.3647 18.5001 12.4966 18.3682C14.3363 16.5285 15.6269 13.8701 15.6269 10.8105C15.6269 7.75167 14.3373 5.09348 12.4966 3.25284Z" fill="#FF9F66"/>
</svg>
