<svg width="658" height="381" viewBox="0 0 658 381" fill="none" xmlns="http://www.w3.org/2000/svg">
<path d="M651.356 352.797C653.204 353.563 654.896 354.657 656.35 356.026L644.688 367.688L633.026 379.35C631.657 377.895 630.563 376.204 629.798 374.356C628.968 372.354 628.542 370.208 628.542 368.042C628.542 365.875 628.968 363.729 629.798 361.727C630.627 359.725 631.842 357.906 633.374 356.374C634.907 354.842 636.725 353.627 638.727 352.797C640.729 351.968 642.875 351.542 645.042 351.542C647.208 351.542 649.354 351.968 651.356 352.797Z" fill="#258675" stroke="black"/>
<path d="M507.707 8.79774C505.859 9.5631 504.167 10.6575 502.713 12.0263L514.374 23.6882L526.036 35.3501C527.405 33.8957 528.5 32.2038 529.265 30.356C530.094 28.3542 530.521 26.2086 530.521 24.0417C530.521 21.8749 530.094 19.7293 529.265 17.7275C528.436 15.7256 527.22 13.9067 525.688 12.3745C524.156 10.8423 522.337 9.62694 520.335 8.79774C518.333 7.96853 516.188 7.54175 514.021 7.54175C511.854 7.54175 509.708 7.96853 507.707 8.79774Z" fill="#FEAEA3" stroke="black"/>
<path d="M14.8127 233.937C14.1643 233.289 13.3945 232.775 12.5473 232.424C11.7001 232.073 10.7921 231.892 9.87511 231.892C8.95813 231.892 8.05011 232.073 7.20293 232.424C6.35574 232.775 5.58597 233.289 4.93756 233.937C4.28915 234.586 3.7748 235.356 3.42388 236.203C3.07297 237.05 2.89235 237.958 2.89235 238.875C2.89235 239.792 3.07297 240.7 3.42389 241.547C3.7748 242.394 4.28915 243.164 4.93756 243.813L9.87511 238.875L14.8127 233.937Z" fill="#258675"/>
</svg>
