<svg width="1282" height="853" viewBox="0 0 1282 853" fill="none" xmlns="http://www.w3.org/2000/svg">
<path d="M1245 828.021C1246.58 826.442 1248.45 825.19 1250.52 824.336C1252.58 823.481 1254.79 823.042 1257.02 823.042C1259.25 823.042 1261.46 823.481 1263.53 824.336C1265.59 825.19 1267.46 826.442 1269.04 828.021C1270.62 829.599 1271.87 831.473 1272.73 833.536C1273.58 835.598 1274.02 837.809 1274.02 840.042C1274.02 842.274 1273.58 844.485 1272.73 846.547C1271.87 848.61 1270.62 850.484 1269.04 852.062L1257.02 840.042L1245 828.021Z" fill="#258675"/>
<path d="M20.813 6.93769C19.902 6.02662 18.8204 5.30392 17.63 4.81085C16.4396 4.31779 15.1638 4.06401 13.8754 4.06401C12.5869 4.06401 11.3111 4.31779 10.1207 4.81085C8.93034 5.30392 7.84875 6.02662 6.93768 6.93769C6.02661 7.84876 5.30391 8.93035 4.81084 10.1207C4.31778 11.3111 4.064 12.5869 4.064 13.8754C4.064 15.1638 4.31778 16.4396 4.81084 17.63C5.30391 18.8204 6.02661 19.902 6.93768 20.813L13.8754 13.8754L20.813 6.93769Z" fill="#FEAEA3"/>
</svg>
