<svg width="1170" height="605" viewBox="0 0 1170 605" fill="none" xmlns="http://www.w3.org/2000/svg">
<path d="M0 560C0 573.978 0 580.967 2.28361 586.481C5.32843 593.831 11.1687 599.672 18.5195 602.716C24.0326 605 31.0218 605 45 605H1094.08C1116.25 605 1127.33 605 1134.24 601.066C1143.44 595.821 1149.2 586.109 1149.38 575.516C1149.52 567.571 1144.2 557.847 1133.56 538.399L906.238 122.954C902.598 116.302 900.778 112.976 898.349 110.315C895.112 106.767 891.069 104.048 886.562 102.387C883.182 101.141 879.415 100.71 871.881 99.8472L50.1199 5.73969C34.7345 3.97778 27.0417 3.0968 20.9288 5.03595C12.7782 7.62152 6.11821 13.5623 2.62209 21.3658C0 27.2185 0 34.9615 0 50.4475V560Z" fill="#F5F6F9"/>
<path fill-rule="evenodd" clip-rule="evenodd" d="M519.182 510.293C553.245 510.293 583.722 505.671 611.211 497.584C630.334 491.808 648.262 483.721 663.799 474.478C684.714 461.77 702.642 446.173 716.984 428.266C730.729 412.092 741.485 393.607 749.852 373.967C764.194 340.463 771.365 303.493 771.365 264.79V88.3362L556.234 63.6996V333.309C556.234 348.207 556.822 363.106 559.165 377.441C547.228 379.169 534.099 380.321 519.182 380.321C396.677 380.321 375.761 313.891 375.761 215.69V43.0319L267 30.5767V264.79C267 395.34 347.674 510.293 519.182 510.293ZM1054.5 393.923L951.24 205.2V284.208C951.24 382.409 930.325 448.839 807.819 448.839C785.111 448.839 765.988 446.529 749.853 442.485C737.304 439.019 726.547 434.398 716.986 428.621C702.644 446.529 684.716 462.125 663.8 474.834C648.263 484.076 630.335 492.163 611.213 497.94C625.555 515.269 643.482 530.288 663.8 542.997C701.448 565.525 749.255 579.389 808.417 579.389C952.798 579.389 1032.81 497.923 1054.5 393.923Z" fill="#E8EEF0"/>
</svg>
