<svg width="1033" height="425" viewBox="0 0 1033 425" fill="none" xmlns="http://www.w3.org/2000/svg">
<path d="M12.0005 16.9686C14.2289 14.7402 16.8743 12.9726 19.7858 11.7666C22.6973 10.5607 25.8178 9.93995 28.9691 9.93995C32.1205 9.93995 35.241 10.5607 38.1524 11.7666C41.0639 12.9726 43.7093 14.7402 45.9377 16.9686C48.166 19.1969 49.9336 21.8423 51.1396 24.7538C52.3456 27.6653 52.9663 30.7858 52.9663 33.9371C52.9663 37.0885 52.3456 40.209 51.1396 43.1205C49.9336 46.0319 48.166 48.6774 45.9377 50.9057L28.9691 33.9371L12.0005 16.9686Z" fill="#FFE9E4"/>
<path d="M31 32.9999H2L17.037 55.9999L31 32.9999Z" stroke="#FEAEA3" stroke-width="2.5" stroke-linejoin="round"/>
<circle cx="953.227" cy="418.539" r="4.5" transform="rotate(-33.1005 953.227 418.539)" stroke="#FEAEA3"/>
<rect x="1019.18" y="343.849" width="2" height="12" rx="1" transform="rotate(-78.1005 1019.18 343.849)" fill="#EDC988"/>
<rect width="2" height="12" rx="1" transform="matrix(-0.978512 -0.206192 0.206201 -0.97851 1025 350.185)" fill="#EDC988"/>
</svg>
