<svg width="1367" height="308" viewBox="0 0 1367 308" fill="none" xmlns="http://www.w3.org/2000/svg">
<path d="M1206.06 12.0208C1204.48 10.4422 1202.61 9.19001 1200.55 8.33567C1198.48 7.48134 1196.27 7.04163 1194.04 7.04163C1191.81 7.04163 1189.6 7.48135 1187.54 8.33567C1185.47 9.19 1183.6 10.4422 1182.02 12.0208C1180.44 13.5994 1179.19 15.4735 1178.34 17.536C1177.48 19.5985 1177.04 21.8092 1177.04 24.0416C1177.04 26.2741 1177.48 28.4847 1178.34 30.5472C1179.19 32.6098 1180.44 34.4838 1182.02 36.0624L1194.04 24.0416L1206.06 12.0208Z" fill="#258675"/>
<path d="M14.8127 152.938C14.1643 152.289 13.3945 151.775 12.5473 151.424C11.7001 151.073 10.7921 150.892 9.87511 150.892C8.95813 150.892 8.05011 151.073 7.20293 151.424C6.35574 151.775 5.58597 152.289 4.93756 152.938C4.28915 153.586 3.7748 154.356 3.42388 155.203C3.07297 156.05 2.89235 156.958 2.89235 157.875C2.89235 158.792 3.07297 159.7 3.42389 160.547C3.7748 161.394 4.28915 162.164 4.93756 162.813L9.87511 157.875L14.8127 152.938Z" fill="#258675"/>
<path d="M1375.06 283.021C1373.48 281.442 1371.61 280.19 1369.55 279.336C1367.48 278.481 1365.27 278.042 1363.04 278.042C1360.81 278.042 1358.6 278.481 1356.54 279.336C1354.47 280.19 1352.6 281.442 1351.02 283.021C1349.44 284.599 1348.19 286.473 1347.34 288.536C1346.48 290.599 1346.04 292.809 1346.04 295.042C1346.04 297.274 1346.48 299.485 1347.34 301.547C1348.19 303.61 1349.44 305.484 1351.02 307.062L1363.04 295.042L1375.06 283.021Z" fill="#EDC988"/>
</svg>
